<svg id="Layer_1" data-name="Layer 1" xmlns="http://www.w3.org/2000/svg" viewBox="0 0 562.91 708.65"><defs><style>.cls-1{fill:#66a642;}.cls-2{fill:#845f3b;}.cls-10,.cls-2,.cls-3,.cls-4,.cls-5,.cls-6,.cls-7,.cls-8,.cls-9{fill-rule:evenodd;}.cls-3{fill:#724f2b;}.cls-4{fill:#3e2d1e;}.cls-5{fill:#5e3e1a;}.cls-6{fill:#10090d;}.cls-7{fill:#5b1a14;}.cls-8{fill:#fff;}.cls-9{fill:#a67e69;}.cls-10{fill:#555658;}</style></defs><path class="cls-1" d="M872.72,489.46c1.81,2.18,5.87.53,5.61-2.47-.55-6.58-1.87-10.09-6-15.23-2.23-2.76-5.63-.07-5.46,2.87a56.66,56.66,0,0,0-5.22-3.41,3.36,3.36,0,0,0-4.79,3.91c.92,3.46,2,6.77,3.08,10-2.81-3.89-5.55-7.82-8.17-11.9-2.37-3.68-7.11-.53-5.51,3.43q3.15,7.79,6.29,15.59c-3.89-6.47-6.68-12.15-13.35-15.44-2.84-1.4-5.69,1.45-4.26,4.53L845.34,504l-19.83-31.76c-2.17-3.48-6.78-.49-5.19,3.22q12.23,28.45,24.46,56.93L810.3,476.26c-2.12-3.44-6.87-.46-5.17,3.21q13.35,28.68,26.7,57.36L802,490.61c-2.06-3.2-6.62-.43-4.91,3.05q16.32,33.19,32.74,66.34-13.07-17.65-26.11-35.32c-2.1-2.85-6.1.78-4.57,3.75q10.1,19.7,20.4,39.25-7.5-8.92-15.11-17.77c-2-2.26-5.92.09-5,3.06A85.8,85.8,0,0,0,810,574.7a2.1,2.1,0,0,0,3.56-2.21c-1.1-2-2.08-4-3-6q11,13,22.13,25.94c2.25,2.64,6.1-.74,4.54-3.72q-8-15.37-16-30.77c7.55,10.08,15.13,20.13,22.64,30.24,2,2.65,5.56-.72,4.22-3.47Q836,560,823.86,535.18,837,555.57,850.13,576c2.07,3.25,6.56.46,4.94-3.07q-11.3-24.58-22.7-49.12,14.49,23.54,29,47.09c2.14,3.47,6.75.47,5.17-3.21l-25.08-58.4Q853.8,529.11,866.18,549c2.17,3.48,7,.48,5.24-3.25q-9.46-20.55-18.91-41.09c.6,1.12,1.19,2.19,1.78,3.18l14.07,23.78c2.24,3.78,7.06.5,5.49-3.41L862,498.8c3,3.74,6,7.43,9.12,11,2.5,2.85,6.91-.82,5-4.15a137.66,137.66,0,0,1-10.26-23.12,55.44,55.44,0,0,1,6.8,6.89" transform="translate(-718.64 -178.35)"/><path class="cls-2" d="M836.9,416.41c-34,49.87-79.77,110.61-75.17,127.08,5.25,18.84,12.3,46.37,10.73,65.19s-24.88,75.36-.61,131.85a213.28,213.28,0,0,1,9.81,29.22C795.2,820.54,797,875.53,841.11,884c110.5,21.21,289.78-74.4,349.21-151.88l33.1-269.82c-67.7-93.84-290-123.9-386.52-45.89" transform="translate(-718.64 -178.35)"/><path class="cls-3" d="M836.9,416.41c-5.83,8.55-12,17.43-18.24,26.33,19.72,3.84,112-27.28,201.1-17.51s147,26.4,170.22,50.31c12.89,13.3,21.28,32.36,26.36,44.58l2.93-23.9c-2.14-15.28-4.87-33-7.18-47.52-78.36-83-283.5-106.37-375.19-32.29" transform="translate(-718.64 -178.35)"/><path class="cls-3" d="M766.64,562.24c3.79,15.76,6.91,33.24,5.81,46.44-.84,10.51-8.49,32.74-10.86,60.14,11.52.62,28.39-7.84,43.95-28.86s30.11-62.67,33.51-63.39,25.92-4.71,40.43,2.18,30.6,47.82,30.6,47.82-7.37,34.77,6.44,56.16,88.58,14.47,111-4.35,38.82-64.48,38.82-64.48l83.89,8.11,10.93-21.67Z" transform="translate(-718.64 -178.35)"/><path class="cls-3" d="M798.16,837.62c7.65,23.68,19.12,41.82,43,46.38,110.5,21.21,289.78-74.4,349.21-151.88l1.72-13.94-37.12.91c.85,0-51.43,58.69-116.65,93.45s-118.66,53.63-133.13,54.34-12.85-10.14-32.44-13.76-46-.08-57.87-1.45c-5.52-.64-11.47-7.69-16.67-14" transform="translate(-718.64 -178.35)"/><path class="cls-4" d="M1259.16,613.06v0c20.44-71.68,22.27-136.21,13.55-162.28-2-6-22.22-22.48-40-23-31.85-91-281.32-78.37-341.28-249.39C796.14,248.85,789.54,411,838.63,422.88c4.47.25,7.19.33,7.19.33s175.85-31.15,256.08-.72,104.45,42.75,106,63.76c1.79,23.72-63.26,146-82.72,184.74l23.1,14.49s29.24-66.67,55.52-76.8c17.14-6.6,40.87-.61,55.33,4.38" transform="translate(-718.64 -178.35)"/><path class="cls-5" d="M891.45,178.35c-95.3,70.51-101.9,232.64-52.82,244.52,4.47.26,7.19.34,7.19.34s175.85-31.15,256.08-.73,104.45,42.76,106,63.77c1.78,23.72-63.27,146-82.73,184.74l1.78,1.11c5-13.35,19.56-44.31,40.26-73.29,28.8-40.32,68.56-80.4,63.15-115.9s-36.94-43.47-97.54-67.38S1035.71,396,1004.91,375.7s-42-38.42-43.79-51.46-8.38,17.38-9.15,26.81,1.24,46.37,1.24,46.37-19.62-5.79-32.53-22.46-8.16-62.31-7.35-66.65-5.06,5.79-13.44,20.28-10.12,59.18-7.13,65.19-42.89-44.18-35.69-100.71,34.38-114.72,34.38-114.72" transform="translate(-718.64 -178.35)"/><path class="cls-6" d="M849.91,549.58l-119.7-8.42C713.33,561,706.32,669.22,771.13,657.1c34.85-6.53,65.79-71.74,77.67-75.36s15.26-5.07,23,.72c19.11,14.38-1.1,114.44,109.76,103.62,51.84-5.08,76.81-73.19,84.42-78.25s121.91,12.84,121.91,12.84l17.19-16.1-130.77-19.94s.36-7.61-9.46-11.58-159.69-17.76-168.2-18.12-18.67,3.27-25.91,3.62-10.44-2.17-12.16-4.15-7.08-4.82-8.65-4.82" transform="translate(-718.64 -178.35)"/><path class="cls-7" d="M792.84,728.78c40.71,20.14,105.13,24,149.89,17.4C1031.11,733.13,1065,710,1065,710s-8.07,55.06-69.05,88.39S872.78,826.6,844.64,820.07a129.55,129.55,0,0,1-27.14-9.22c-8.46-4.1-12.12-7.45-12.12-7.45s14.34-14.47,13.33-34-25.87-40.58-25.87-40.58" transform="translate(-718.64 -178.35)"/><path class="cls-8" d="M816.22,737.91c39.31,12,89.6,13.71,126.51,8.27,49.29-7.28,81.61-17.7,100.58-25.51-1.9,8-5,19.45-8.23,22.39-22,20.43-181.59,28.59-216,12.7-2.79-1.32-3.07-10.28-2.85-17.85" transform="translate(-718.64 -178.35)"/><path class="cls-2" d="M1164.46,632.58c.41-2.19,24-23.9,47-31.51s43.32-10.15,61.32,8c32.76,33-32.88,118.88-82.84,123.81-19.06,1.89-41.3-11.16-46-20.22s20.6-80,20.6-80" transform="translate(-718.64 -178.35)"/><path class="cls-5" d="M1185.68,640.87c3-3.24,28.47-24.85,45.12-21.38s22.59,16.19,18.91,31.75-35.31,49.67-46.56,52.71-28.78-4.09-31.93-15.1,6.8-7.13,13.19-16.85,4.85-13.62-.54-19.14,1.81-12,1.81-12" transform="translate(-718.64 -178.35)"/><path class="cls-9" d="M1213.31,622.36c6-2.55,12.21-4,17.49-2.87,16.64,3.46,22.59,16.19,18.91,31.75-3.54,15-32.92,47.07-45.16,52.23,6.39-7.14,13.87-16.07,19.47-25.09,13.33-21.34,15.48-35.14,8.14-47.44-2.93-4.89-10.49-7.51-18.85-8.58" transform="translate(-718.64 -178.35)"/><path class="cls-4" d="M846.52,698.63c0-2.9-14.09-5.79-25.17-8.33a238.68,238.68,0,0,0-30.28-4l44.36-85.27c-2.51,3.26-53.7,85.66-53.7,85.66a.28.28,0,0,0,0,.32c1.72,2.54,12.42,11.25,19.68,13.4s45.07-1.8,45.07-1.8" transform="translate(-718.64 -178.35)"/><path class="cls-3" d="M1074.33,699.15c5.85,30.8-11.16,58-10.17,57.6,26.78-9.61,44.32-63,10.17-57.6" transform="translate(-718.64 -178.35)"/><path class="cls-8" d="M813.68,808.89c1.15.6,2.41,1.27,3.82,2a128.23,128.23,0,0,0,27.15,9.23c28.13,6.54,90.28,11.59,151.26-21.72,2.08-1.14,4.09-2.32,6.07-3.5-105.37,8.1-119.28,5-189.76-6,0,.08,1.4,18.51,1.46,20.06" transform="translate(-718.64 -178.35)"/><path class="cls-10" d="M1013.37,587.94c1.48.13,28.7,4.67,28.89,3.36s4.2,8.05-7.42,24.74-35.16,22.23-35.16,22.23c5.41-6.95,17.72-36.18,13.69-50.33" transform="translate(-718.64 -178.35)"/><path class="cls-10" d="M798.73,566.2c1.1.15,21.37,4.68,21.48,3.35s3.16,8.07-5.46,24.78-26.1,22.21-26.1,22.21c4-6.95,13.1-36.18,10.08-50.34" transform="translate(-718.64 -178.35)"/></svg>